<svg xmlns="http://www.w3.org/2000/svg" fill="#f5f5f5" viewBox="0 0 32 32"><path d="M13 4a1 1 0 0 0 1-1V1a1 1 0 0 0-2 0v2a1 1 0 0 0 1 1zm7.777 2.635 1.414-1.414a.999.999 0 1 0-1.414-1.414l-1.414 1.414a.999.999 0 1 0 1.414 1.414zM1 14h2a1 1 0 0 0 0-2H1a1 1 0 0 0 0 2zm21-1a1 1 0 0 0 1 1h2a1 1 0 0 0 0-2h-2a1 1 0 0 0-1 1zM5.221 6.635a.999.999 0 1 0 1.414-1.414L5.221 3.807a.999.999 0 1 0-1.414 1.414l1.414 1.414zM25 16c-.332 0-.66.023-.987.07a9.95 9.95 0 0 0-4.029-3.219C19.903 9.062 16.808 5.999 13 5.999c-3.859 0-7 3.141-7 7 0 1.09.271 2.109.719 3.027C2.992 16.178 0 19.237 0 22.999c0 3.859 3.141 7 7 7 .856 0 1.693-.156 2.482-.458A9.906 9.906 0 0 0 16 31.999a9.9 9.9 0 0 0 6.518-2.458 6.926 6.926 0 0 0 2.482.458c3.859 0 7-3.141 7-7s-3.141-7-7-7zM13 8c2.488 0 4.535 1.823 4.919 4.203A9.786 9.786 0 0 0 16 12a9.898 9.898 0 0 0-7.398 3.328A4.937 4.937 0 0 1 8 13a5 5 0 0 1 5-5zm12 20a4.97 4.97 0 0 1-2.871-.917C20.662 28.851 18.477 30 16 30s-4.662-1.148-6.129-2.917A4.968 4.968 0 0 1 7 28c-2.762 0-5-2.238-5-5s2.238-5 5-5c.484 0 .941.091 1.383.221.176.049.354.089.52.158a8.054 8.054 0 0 1 .999-1.484C11.363 15.137 13.536 14 16.001 14c.633 0 1.24.091 1.828.232.66.156 1.284.393 1.865.706a8.074 8.074 0 0 1 3.404 3.441A5 5 0 0 1 30.002 23a5 5 0 0 1-5 5z"/></svg>