<svg xmlns="http://www.w3.org/2000/svg" fill="#f5f5f5" viewBox="0 6 32 20"><path d="M25 10c-.332 0-.66.023-.987.07C22.146 7.526 19.199 6 16 6s-6.145 1.526-8.013 4.07A6.918 6.918 0 0 0 7 10c-3.859 0-7 3.141-7 7s3.141 7 7 7c.856 0 1.693-.156 2.482-.458A9.906 9.906 0 0 0 16 26a9.9 9.9 0 0 0 6.518-2.458A6.926 6.926 0 0 0 25 24c3.859 0 7-3.141 7-7s-3.141-7-7-7zm0 12a4.97 4.97 0 0 1-2.871-.917C20.662 22.851 18.477 24 16 24s-4.662-1.148-6.129-2.917A4.968 4.968 0 0 1 7 22c-2.762 0-5-2.238-5-5s2.238-5 5-5c.676 0 1.316.138 1.902.38C10.229 9.792 12.893 8 16 8s5.771 1.792 7.096 4.38A4.983 4.983 0 0 1 25 12c2.762 0 5 2.238 5 5s-2.238 5-5 5z"/></svg>