<svg xmlns="http://www.w3.org/2000/svg" fill="#f5f5f5" viewBox="0 0 32 32"><path d="m12 24 2 2-2 6 6-6-2-2 2-4-6 4zM32 8.427a5.577 5.577 0 0 0-6.02-5.553A7.647 7.647 0 0 0 20 0a7.648 7.648 0 0 0-5.98 2.874 5.577 5.577 0 0 0-6.019 5.553c0 .322.043.633.094.94-.034.044-.074.085-.107.13a6.918 6.918 0 0 0-.987-.07c-3.859 0-7 3.141-7 7s3.141 7 7 7c.856 0 1.693-.156 2.482-.458.069.06.151.102.221.16l1.77-1.18c-.59-.418-1.141-.883-1.602-1.438a4.973 4.973 0 0 1-2.871.915 5 5 0 0 1 0-10c.676 0 1.316.138 1.902.38.035-.068.078-.125.113-.19a8.152 8.152 0 0 1 1.292-1.753c1.443-1.493 3.448-2.438 5.693-2.438 3.107 0 5.771 1.792 7.096 4.38.353-.146.729-.24 1.117-.302l.787-.078c.771 0 1.492.19 2.145.5a4.993 4.993 0 0 1 1.79 1.45 4.958 4.958 0 0 1 1.065 3.05c0 2.763-2.238 5-5 5a4.983 4.983 0 0 1-2.871-.915c-.875 1.055-2.027 1.848-3.322 2.348l-.374.746 1.141 1.141a10.034 10.034 0 0 0 2.944-1.777 6.926 6.926 0 0 0 2.482.458c3.859 0 7-3.141 7-7 0-1.604-.565-3.068-1.479-4.25a5.525 5.525 0 0 0 1.479-3.75zm-2.902 2.352a6.94 6.94 0 0 0-5.085-1.282A9.918 9.918 0 0 0 16 5.427a9.876 9.876 0 0 0-5.809 1.897 3.56 3.56 0 0 1 3.379-2.467c.484 0 .941.098 1.359.271C15.878 3.279 17.781 2 19.999 2s4.122 1.279 5.068 3.128a3.57 3.57 0 0 1 4.932 3.299c0 .906-.348 1.723-.902 2.352z"/></svg>