<svg xmlns="http://www.w3.org/2000/svg" width="512" height="512" style="shape-rendering:geometricPrecision;text-rendering:geometricPrecision;image-rendering:optimizeQuality;fill-rule:evenodd;clip-rule:evenodd"><path style="opacity:.941" fill="#f8e98e" d="M185.5 46.5a32.438 32.438 0 0 1 8 .5c1.833.5 3 1.667 3.5 3.5.667 11 .667 22 0 33-5.862 5.694-10.862 5.027-15-2-.667-10-.667-20 0-30a27.248 27.248 0 0 1 3.5-5Z"/><path style="opacity:.94" fill="#f8e98e" d="M95.5 70.5c2.82-.252 5.486.248 8 1.5a171.036 171.036 0 0 1 16 28.5c-1.298 5.982-4.965 8.482-11 7.5-2.833-1.5-5-3.667-6.5-6.5l-11-20c-1.224-4.874.276-8.54 4.5-11Z"/><path style="opacity:.943" fill="#f8e98e" d="M278.5 70.5c8.14-.694 11.64 2.972 10.5 11l-13 23c-5.486 5.58-10.486 5.247-15-1-.667-2-.667-4 0-6a387.277 387.277 0 0 1 13-23c1.397-1.57 2.897-2.904 4.5-4Z"/><path style="opacity:.994" fill="#f6ca43" d="M213.5 121.5c7.619 54.242-11.381 96.076-57 125.5-25.804 13.758-53.137 18.258-82 13.5-7.555-49.201 8.112-89.035 47-119.5 27.979-18.826 58.646-25.326 92-19.5Z"/><path style="opacity:1" fill="#f9b03c" d="M213.5 121.5c48.254 11.921 78.588 41.921 91 90-29.595 3.963-54.595 16.63-75 38-10.456 9.571-18.456 20.904-24 34-26.87-3.2-51.204 3.134-73 19a163.297 163.297 0 0 0-21 22c-18.988-17.286-31.321-38.62-37-64 28.863 4.758 56.196.258 82-13.5 45.619-29.424 64.619-71.258 57-125.5Z"/><path style="opacity:.946" fill="#f8e98e" d="M28.5 137.5a18.452 18.452 0 0 1 6 .5A156.184 156.184 0 0 1 60 153.5c2.942 7.078.608 11.412-7 13A341.451 341.451 0 0 1 26.5 152c-4.372-5.592-3.706-10.425 2-14.5Z"/><path style="opacity:.955" fill="#f8e98e" d="M344.5 137.5c10.889-.467 14.056 4.2 9.5 14a188.277 188.277 0 0 1-28 15c-7.385-2.211-9.385-6.877-6-14 8.314-4.9 16.481-9.9 24.5-15Z"/><path style="opacity:1" fill="#60dafe" d="M511.5 385.5v24c-9.724 37.36-34.057 56.027-73 56 11.912-24.509 10.412-48.176-4.5-71-13.586-16.963-31.253-26.63-53-29-5.519-52.216-32.352-88.716-80.5-109.5-23.062-8.614-46.729-10.781-71-6.5 20.405-21.37 45.405-34.037 75-38 55.197-3.986 97.364 17.348 126.5 64 9.055 16.884 14.388 34.884 16 54 34.411 3.918 55.911 22.584 64.5 56Z"/><path style="opacity:.939" fill="#f8e98e" d="M-.5 240.5v-8a27.249 27.249 0 0 1 5-3.5c10-.667 20-.667 30 0 7.027 4.138 7.694 9.138 2 15-11 .667-22 .667-33 0-1.85-.69-3.184-1.856-4-3.5Z"/><path style="opacity:1" fill="#9eebff" d="M317.5 234.5c30.475.426 56.308 11.426 77.5 33 2.734 8.605-.433 12.438-9.5 11.5-19.085-19.702-42.419-29.702-70-30-4.498-5.68-3.831-10.513 2-14.5Z"/><path style="opacity:.998" fill="#a0ebfe" d="M438.5 465.5h-158c38.031-9.348 55.531-33.681 52.5-73-7.991-30.75-27.824-47.584-59.5-50.5-12.887-29.38-34.887-48.214-66-56.5-1.213-.247-1.88-.914-2-2 5.544-13.096 13.544-24.429 24-34 24.271-4.281 47.938-2.114 71 6.5 48.148 20.784 74.981 57.284 80.5 109.5 21.747 2.37 39.414 12.037 53 29 14.912 22.824 16.412 46.491 4.5 71Z"/><path style="opacity:1" fill="#dde9ed" d="M205.5 283.5c.12 1.086.787 1.753 2 2 31.113 8.286 53.113 27.12 66 56.5 31.676 2.916 51.509 19.75 59.5 50.5 3.031 39.319-14.469 63.652-52.5 73h-89a3428.49 3428.49 0 0 1 83-1.5c19.093-25.218 19.926-51.051 2.5-77.5-12.612-15.057-28.779-23.39-48.5-25-12.102-28.602-33.102-47.102-63-55.5a304.938 304.938 0 0 0-33-3.5c21.796-15.866 46.13-22.2 73-19Z"/><path style="opacity:1" fill="#9eebff" d="M405.5 292.5c3.255-.486 5.922.514 8 3 4.32 7.118 6.487 14.785 6.5 23-2.665 4.934-6.498 6.101-11.5 3.5-1.987-1.319-3.154-3.152-3.5-5.5a333.689 333.689 0 0 0-4.5-16.5c.282-3.444 1.948-5.944 5-7.5Z"/><path style="opacity:.997" fill="#eff4f6" d="M132.5 302.5a304.938 304.938 0 0 1 33 3.5c29.898 8.398 50.898 26.898 63 55.5 19.721 1.61 35.888 9.943 48.5 25 17.426 26.449 16.593 52.282-2.5 77.5a3428.49 3428.49 0 0 0-83 1.5c-33.668.167-67.335 0-101-.5-28.26-7.665-41.426-26.165-39.5-55.5 5.68-24.849 21.18-38.515 46.5-41 .459-16.042 5.126-30.709 14-44a163.297 163.297 0 0 1 21-22Z"/><path style="opacity:.942" fill="#f8e98e" d="M50.5 307.5c9.533-.259 12.7 4.074 9.5 13A328.905 328.905 0 0 1 34.5 336c-9.558.722-12.725-3.445-9.5-12.5a204.222 204.222 0 0 1 25.5-16Z"/></svg>