<svg xmlns="http://www.w3.org/2000/svg" fill="#f5f5f5" viewBox="1.94 5.94 30 18"><path d="M30.938 13.938h-5.102c-.504-4.487-4.277-8-8.898-8-3.113 0-5.859 1.591-7.477 4H2.938a1 1 0 0 0 0 2H8.49a8.86 8.86 0 0 0-.45 2H4.938a1 1 0 0 0 0 2H8.04c.077.693.224 1.363.45 2H3.12c-.654 0-1.182.448-1.182 1s.529 1 1.182 1h6.341c1.617 2.41 4.363 4 7.477 4s5.859-1.59 7.477-4h2.341c.654 0 1.182-.448 1.182-1s-.529-1-1.182-1h-1.37a8.97 8.97 0 0 0 .451-2h5.102a1 1 0 0 0 0-2zm-20.299-2h6.298a1 1 0 0 0 0-2h-4.884a6.972 6.972 0 0 1 4.884-2c3.518 0 6.409 2.617 6.898 6H10.038a6.89 6.89 0 0 1 .6-2zm6.299 10a6.976 6.976 0 0 1-4.884-2h9.767a6.972 6.972 0 0 1-4.883 2zm6.296-4H10.639a6.859 6.859 0 0 1-.6-2h13.797a6.832 6.832 0 0 1-.602 2z"/></svg>