<svg xmlns="http://www.w3.org/2000/svg" width="64" height="64" xml:space="preserve"><path style="stroke:none;stroke-width:1;stroke-dasharray:none;stroke-linecap:butt;stroke-dashoffset:0;stroke-linejoin:miter;stroke-miterlimit:4;fill:#fff;fill-rule:evenodd;opacity:.827" transform="translate(8.33 5.33)" d="M15.5-.5h13c15.946 7.663 20.113 19.663 12.5 36L37.5 39c3.14 3.812 6.14 7.645 9 11.5v1c-1.73.526-3.064 1.526-4 3h-1a159.176 159.176 0 0 0-9.5-12c-15.266 5.278-26.1.611-32.5-14v-13c3-7.667 8.333-13 16-16Zm6 5c15.45 3.575 20.283 12.575 14.5 27-9.333 10.667-18.667 10.667-28 0-5.643-14.048-1.143-23.048 13.5-27Z"/></svg>