<svg xmlns="http://www.w3.org/2000/svg" fill="#f5f5f5" viewBox="0.5 1 47.01 47.01"><path d="M14.5 24.502c0 1 .16 1.97.44 2.871l-4.08 2.35-7.26-1.94c-1.31-.35-2.66.43-3.02 1.729a2.448 2.448 0 0 0 1.75 3l5.87 1.57-1.58 5.84a2.454 2.454 0 0 0 1.74 3c1.32.35 2.67-.43 3.02-1.738l1.94-7.221 4.27-2.451a9.584 9.584 0 0 0 3.95 2.172v5.5l-5.32 4.488c-.96.99-.96 2.59 0 3.59.96.99 2.52.99 3.48 0l4.3-4.439 4.3 4.439c.96.99 2.52.99 3.479 0 .961-1 .961-2.6 0-3.59l-5.319-4.488v-5.5a9.573 9.573 0 0 0 3.95-2.172l4.27 2.451 1.94 7.221a2.466 2.466 0 0 0 3.02 1.738 2.453 2.453 0 0 0 1.74-3l-1.58-5.84 5.87-1.57a2.448 2.448 0 0 0 1.75-3 2.478 2.478 0 0 0-3.02-1.729l-7.261 1.939-4.079-2.35c.279-.9.439-1.871.439-2.871s-.16-1.97-.439-2.88l4.079-2.34 7.261 1.94c1.31.35 2.66-.431 3.02-1.73.35-1.31-.43-2.65-1.75-3l-5.87-1.57 1.58-5.84a2.454 2.454 0 0 0-1.74-3c-1.32-.35-2.67.43-3.02 1.74l-1.94 7.22-4.27 2.45a9.569 9.569 0 0 0-3.95-2.17v-4.5l5.319-5.49c.961-.99.961-2.59 0-3.59-.96-.99-2.52-.99-3.479 0L24 6.183l-4.3-4.44a2.41 2.41 0 0 0-3.48 0c-.96 1-.96 2.6 0 3.59l5.32 5.49v4.5c-1.49.4-2.84 1.16-3.95 2.17l-4.27-2.45-1.94-7.22a2.466 2.466 0 0 0-3.02-1.74 2.455 2.455 0 0 0-1.74 3l1.58 5.84-5.87 1.57c-1.32.35-2.1 1.69-1.75 3 .36 1.3 1.71 2.08 3.02 1.73l7.26-1.94 4.08 2.34a9.79 9.79 0 0 0-.44 2.879zm9.5 4.5c-2.49 0-4.5-2.01-4.5-4.5s2.01-4.5 4.5-4.5 4.5 2.01 4.5 4.5-2.01 4.5-4.5 4.5z"/></svg>