<?xml version="1.0" encoding="UTF-8"?>
<!DOCTYPE svg PUBLIC "-//W3C//DTD SVG 1.1//EN" "http://www.w3.org/Graphics/SVG/1.1/DTD/svg11.dtd">
<svg xmlns="http://www.w3.org/2000/svg" version="1.1" width="512px" height="512px" style="shape-rendering:geometricPrecision; text-rendering:geometricPrecision; image-rendering:optimizeQuality; fill-rule:evenodd; clip-rule:evenodd" xmlns:xlink="http://www.w3.org/1999/xlink">
<g><path style="opacity:0.941" fill="#f8e98e" d="M 185.5,46.5 C 188.187,46.3359 190.854,46.5026 193.5,47C 195.333,47.5 196.5,48.6667 197,50.5C 197.667,61.5 197.667,72.5 197,83.5C 191.138,89.1937 186.138,88.527 182,81.5C 181.333,71.5 181.333,61.5 182,51.5C 182.997,49.6769 184.164,48.0103 185.5,46.5 Z"/></g>
<g><path style="opacity:0.94" fill="#f8e98e" d="M 95.5,70.5 C 98.3198,70.2475 100.986,70.7475 103.5,72C 109.751,81.003 115.084,90.503 119.5,100.5C 118.202,106.482 114.535,108.982 108.5,108C 105.667,106.5 103.5,104.333 102,101.5C 98.3333,94.8333 94.6667,88.1667 91,81.5C 89.7758,76.626 91.2758,72.9593 95.5,70.5 Z"/></g>
<g><path style="opacity:0.943" fill="#f8e98e" d="M 278.5,70.5 C 286.64,69.8057 290.14,73.4724 289,81.5C 284.667,89.1667 280.333,96.8333 276,104.5C 270.514,110.08 265.514,109.747 261,103.5C 260.333,101.5 260.333,99.5 261,97.5C 265.08,89.6712 269.413,82.0045 274,74.5C 275.397,72.9297 276.897,71.5964 278.5,70.5 Z"/></g>
<g><path style="opacity:0.994" fill="#f6ca43" d="M 213.5,121.5 C 221.119,175.742 202.119,217.576 156.5,247C 130.696,260.758 103.363,265.258 74.5,260.5C 66.9454,211.299 82.6121,171.465 121.5,141C 149.479,122.174 180.146,115.674 213.5,121.5 Z"/></g>
<g><path style="opacity:1" fill="#f9b03c" d="M 213.5,121.5 C 261.754,133.421 292.088,163.421 304.5,211.5C 274.905,215.463 249.905,228.13 229.5,249.5C 219.044,259.071 211.044,270.404 205.5,283.5C 178.63,280.3 154.296,286.634 132.5,302.5C 124.77,309.228 117.77,316.561 111.5,324.5C 92.5122,307.214 80.1789,285.88 74.5,260.5C 103.363,265.258 130.696,260.758 156.5,247C 202.119,217.576 221.119,175.742 213.5,121.5 Z"/></g>
<g><path style="opacity:0.946" fill="#f8e98e" d="M 28.5,137.5 C 30.5273,137.338 32.5273,137.505 34.5,138C 43.5266,142.372 52.0266,147.539 60,153.5C 62.9418,160.578 60.6084,164.912 53,166.5C 43.9739,162.069 35.1406,157.236 26.5,152C 22.1275,146.408 22.7942,141.575 28.5,137.5 Z"/></g>
<g><path style="opacity:0.955" fill="#f8e98e" d="M 344.5,137.5 C 355.389,137.033 358.556,141.7 354,151.5C 345.096,157.285 335.763,162.285 326,166.5C 318.615,164.289 316.615,159.623 320,152.5C 328.314,147.6 336.481,142.6 344.5,137.5 Z"/></g>
<g><path style="opacity:1" fill="#60dafe" d="M 511.5,385.5 C 511.5,393.5 511.5,401.5 511.5,409.5C 501.776,446.86 477.443,465.527 438.5,465.5C 450.412,440.991 448.912,417.324 434,394.5C 420.414,377.537 402.747,367.87 381,365.5C 375.481,313.284 348.648,276.784 300.5,256C 277.438,247.386 253.771,245.219 229.5,249.5C 249.905,228.13 274.905,215.463 304.5,211.5C 359.697,207.514 401.864,228.848 431,275.5C 440.055,292.384 445.388,310.384 447,329.5C 481.411,333.418 502.911,352.084 511.5,385.5 Z"/></g>
<g><path style="opacity:0.939" fill="#f8e98e" d="M -0.5,240.5 C -0.5,237.833 -0.5,235.167 -0.5,232.5C 1.01027,231.164 2.67694,229.997 4.5,229C 14.5,228.333 24.5,228.333 34.5,229C 41.527,233.138 42.1937,238.138 36.5,244C 25.5,244.667 14.5,244.667 3.5,244C 1.64977,243.31 0.316435,242.144 -0.5,240.5 Z"/></g>
<g><path style="opacity:1" fill="#9eebff" d="M 317.5,234.5 C 347.975,234.926 373.808,245.926 395,267.5C 397.734,276.105 394.567,279.938 385.5,279C 366.415,259.298 343.081,249.298 315.5,249C 311.002,243.32 311.669,238.487 317.5,234.5 Z"/></g>
<g><path style="opacity:0.998" fill="#a0ebfe" d="M 438.5,465.5 C 385.833,465.5 333.167,465.5 280.5,465.5C 318.531,456.152 336.031,431.819 333,392.5C 325.009,361.75 305.176,344.916 273.5,342C 260.613,312.62 238.613,293.786 207.5,285.5C 206.287,285.253 205.62,284.586 205.5,283.5C 211.044,270.404 219.044,259.071 229.5,249.5C 253.771,245.219 277.438,247.386 300.5,256C 348.648,276.784 375.481,313.284 381,365.5C 402.747,367.87 420.414,377.537 434,394.5C 448.912,417.324 450.412,440.991 438.5,465.5 Z"/></g>
<g><path style="opacity:1" fill="#dde9ed" d="M 205.5,283.5 C 205.62,284.586 206.287,285.253 207.5,285.5C 238.613,293.786 260.613,312.62 273.5,342C 305.176,344.916 325.009,361.75 333,392.5C 336.031,431.819 318.531,456.152 280.5,465.5C 250.833,465.5 221.167,465.5 191.5,465.5C 218.997,464.668 246.664,464.168 274.5,464C 293.593,438.782 294.426,412.949 277,386.5C 264.388,371.443 248.221,363.11 228.5,361.5C 216.398,332.898 195.398,314.398 165.5,306C 154.417,304.219 143.417,303.052 132.5,302.5C 154.296,286.634 178.63,280.3 205.5,283.5 Z"/></g>
<g><path style="opacity:1" fill="#9eebff" d="M 405.5,292.5 C 408.755,292.014 411.422,293.014 413.5,295.5C 417.82,302.618 419.987,310.285 420,318.5C 417.335,323.434 413.502,324.601 408.5,322C 406.513,320.681 405.346,318.848 405,316.5C 403.637,310.947 402.137,305.447 400.5,300C 400.782,296.556 402.448,294.056 405.5,292.5 Z"/></g>
<g><path style="opacity:0.997" fill="#eff4f6" d="M 132.5,302.5 C 143.417,303.052 154.417,304.219 165.5,306C 195.398,314.398 216.398,332.898 228.5,361.5C 248.221,363.11 264.388,371.443 277,386.5C 294.426,412.949 293.593,438.782 274.5,464C 246.664,464.168 218.997,464.668 191.5,465.5C 157.832,465.667 124.165,465.5 90.5,465C 62.2409,457.335 49.0742,438.835 51,409.5C 56.68,384.651 72.18,370.985 97.5,368.5C 97.959,352.458 102.626,337.791 111.5,324.5C 117.77,316.561 124.77,309.228 132.5,302.5 Z"/></g>
<g><path style="opacity:0.942" fill="#f8e98e" d="M 50.5,307.5 C 60.0328,307.241 63.1995,311.574 60,320.5C 51.7498,326.043 43.2498,331.21 34.5,336C 24.9418,336.722 21.7752,332.555 25,323.5C 33.1433,317.516 41.6433,312.183 50.5,307.5 Z"/></g>
</svg>
