<?xml version="1.0" encoding="UTF-8"?>
<!DOCTYPE svg PUBLIC "-//W3C//DTD SVG 1.1//EN" "http://www.w3.org/Graphics/SVG/1.1/DTD/svg11.dtd">
<svg xmlns="http://www.w3.org/2000/svg" version="1.1" width="47px" height="55px" style="shape-rendering:geometricPrecision; text-rendering:geometricPrecision; image-rendering:optimizeQuality; fill-rule:evenodd; clip-rule:evenodd" xmlns:xlink="http://www.w3.org/1999/xlink">
<g><path style="opacity:0.827" fill="#616161" d="M 15.5,-0.5 C 19.8333,-0.5 24.1667,-0.5 28.5,-0.5C 44.4459,7.16331 48.6126,19.1633 41,35.5C 39.8333,36.6667 38.6667,37.8333 37.5,39C 40.6404,42.8118 43.6404,46.6451 46.5,50.5C 46.5,50.8333 46.5,51.1667 46.5,51.5C 44.7697,52.0256 43.4363,53.0256 42.5,54.5C 42.1667,54.5 41.8333,54.5 41.5,54.5C 38.5474,50.375 35.3807,46.375 32,42.5C 16.7338,47.7777 5.90051,43.111 -0.5,28.5C -0.5,24.1667 -0.5,19.8333 -0.5,15.5C 2.5,7.83333 7.83333,2.5 15.5,-0.5 Z M 21.5,4.5 C 36.95,8.07472 41.7833,17.0747 36,31.5C 26.6667,42.1667 17.3333,42.1667 8,31.5C 2.35718,17.4523 6.85718,8.4523 21.5,4.5 Z"/></g>
</svg>
