<?xml version="1.0" encoding="UTF-8" standalone="no" ?>
<!DOCTYPE svg PUBLIC "-//W3C//DTD SVG 1.1//EN" "http://www.w3.org/Graphics/SVG/1.1/DTD/svg11.dtd">
<svg xmlns="http://www.w3.org/2000/svg" xmlns:xlink="http://www.w3.org/1999/xlink" version="1.1" width="64" height="64" viewBox="0 0 64 64" xml:space="preserve">
<desc>Created with Fabric.js 3.6.6</desc>
<defs>
</defs>
<g transform="matrix(1 0 0 1 31.33 32.33)"  >
<path style="stroke: none; stroke-width: 1; stroke-dasharray: none; stroke-linecap: butt; stroke-dashoffset: 0; stroke-linejoin: miter; stroke-miterlimit: 4; fill: rgb(255,255,255); fill-rule: evenodd; opacity: 0.827;"  transform=" translate(-23, -27)" d="M 15.5 -0.5 C 19.8333 -0.5 24.1667 -0.5 28.5 -0.5 C 44.4459 7.16331 48.6126 19.1633 41 35.5 C 39.8333 36.6667 38.6667 37.8333 37.5 39 C 40.6404 42.8118 43.6404 46.6451 46.5 50.5 C 46.5 50.8333 46.5 51.1667 46.5 51.5 C 44.7697 52.0256 43.4363 53.0256 42.5 54.5 C 42.1667 54.5 41.8333 54.5 41.5 54.5 C 38.5474 50.375 35.3807 46.375 32 42.5 C 16.7338 47.7777 5.90051 43.111 -0.5 28.5 C -0.5 24.1667 -0.5 19.8333 -0.5 15.5 C 2.5 7.83333 7.83333 2.5 15.5 -0.5 Z M 21.5 4.5 C 36.95 8.07472 41.7833 17.0747 36 31.5 C 26.6667 42.1667 17.3333 42.1667 8 31.5 C 2.35718 17.4523 6.85718 8.4523 21.5 4.5 Z" stroke-linecap="round" />
</g>
</svg>